<svg width="12" height="7" viewBox="0 0 12 7" fill="none" xmlns="http://www.w3.org/2000/svg">
<path d="M6 6.87498C5.8565 6.87498 5.71731 6.84922 5.58242 6.79769C5.44753 6.74617 5.33561 6.67746 5.24664 6.59159L0.295964 1.85114C0.0986543 1.66221 0 1.42175 0 1.12977C0 0.837784 0.0986543 0.597327 0.295964 0.408396C0.493273 0.219465 0.744394 0.125 1.04933 0.125C1.35426 0.125 1.60538 0.219465 1.80269 0.408396L6 4.42747L10.1973 0.408396C10.3946 0.219465 10.6457 0.125 10.9507 0.125C11.2556 0.125 11.5067 0.219465 11.704 0.408396C11.9013 0.597327 12 0.837784 12 1.12977C12 1.42175 11.9013 1.66221 11.704 1.85114L6.75336 6.59159C6.64574 6.69464 6.52915 6.76781 6.40359 6.81109C6.27803 6.85437 6.1435 6.87567 6 6.87498Z" fill="#D9D9D9"/>
</svg>
