<svg width="859" height="887" viewBox="0 0 859 887" fill="none" xmlns="http://www.w3.org/2000/svg">
<mask id="mask0_191_127" style="mask-type:luminance" maskUnits="userSpaceOnUse" x="0" y="0" width="859" height="887">
<path d="M858.877 0H0.260254V886.422H858.877V0Z" fill="white"/>
</mask>
<g mask="url(#mask0_191_127)">
<path d="M272.649 864.206C333.666 900.988 377.192 885.72 393.858 856.222C426.084 799.178 533.233 682.527 703.037 643.101C927.933 590.882 880.967 452.232 742.714 379.475C604.461 306.716 501.09 206.043 516.735 96.5789C532.38 -12.8852 377.363 -50.6212 308.423 159.951C263.876 296.031 184.04 332.488 133.129 341.251C85.1468 349.508 32.6611 359.872 7.06637 401.298C-23.991 451.563 -13.1534 502.405 116.877 537.279C301.143 586.698 135.889 781.751 272.649 864.206Z" fill="#4558C8"/>
<path d="M114.12 625.697C116.702 624.219 145.846 611.88 290.83 679.487C290.41 680.061 290.229 680.334 290.229 680.334C290.229 680.334 139.503 731.105 109.971 668.559C101.152 649.938 103.679 637.114 113.868 625.842L114.12 625.697Z" fill="#E8E8E8"/>
<path d="M601.429 651.281C569.93 677.769 520.532 696.994 472.866 671.429C480.398 666.614 488.177 661.657 496.113 656.526C543.981 625.762 586.145 646.346 601.429 651.281Z" fill="#E8E8E8"/>
<path d="M657.852 325.516C690.035 593.562 613.554 642.208 605.038 649.597C602.573 651.738 601.576 651.582 597.847 650.622L597.786 650.658C582.012 646.475 543.981 625.765 496.113 656.523C488.177 661.654 480.394 666.611 472.866 671.426C424.032 702.402 384.6 724.234 356.189 711.564C332.093 699.267 310.367 688.624 290.833 679.487C145.846 611.877 116.702 624.219 114.12 625.697C117.116 624.066 144.602 608.825 181.611 582.03C181.737 581.956 181.863 581.886 181.89 581.784C231.356 545.929 297.601 489.422 345.217 416.732C377.636 367.304 409.347 241.995 470.536 217.408C596.286 170.486 652.63 270.993 657.852 325.516Z" fill="white"/>
<path d="M518.805 320.811C522.709 310.502 522.329 300.801 517.956 299.145C513.583 297.488 506.874 304.503 502.97 314.812C499.066 325.124 499.447 334.822 503.819 336.478C508.192 338.135 514.902 331.12 518.805 320.811Z" fill="#000022"/>
<path d="M598.874 333.966C601.64 323.296 600.211 313.692 595.685 312.521C591.159 311.346 585.25 319.044 582.481 329.715C579.715 340.386 581.141 349.989 585.667 351.164C590.193 352.339 596.105 344.637 598.874 333.966Z" fill="#000022"/>
<path d="M550.136 373.15C549.479 373.147 548.842 372.923 548.333 372.512C547.824 372.098 547.468 371.524 547.33 370.883C546.818 368.564 544.536 361.694 540.921 360.676C537.305 359.654 530.213 363.617 527.342 365.697C526.726 366.144 525.956 366.325 525.202 366.206C524.451 366.086 523.776 365.672 523.328 365.052C522.881 364.436 522.697 363.666 522.819 362.912C522.939 362.16 523.353 361.485 523.972 361.037C525.101 360.219 535.229 353.093 542.482 355.139C550.047 357.274 552.672 368.399 552.945 369.659C553.037 370.08 553.033 370.515 552.935 370.935C552.837 371.352 552.644 371.745 552.374 372.079C552.104 372.414 551.764 372.684 551.375 372.868C550.988 373.055 550.565 373.15 550.136 373.15Z" fill="#000022"/>
</g>
</svg>
