<svg width="25" height="24" viewBox="0 0 25 24" fill="none" xmlns="http://www.w3.org/2000/svg">
<g clip-path="url(#clip0_2483_254)">
<path d="M19.5 0H5.5C4.17392 0 2.90215 0.526784 1.96447 1.46447C1.02678 2.40215 0.5 3.67392 0.5 5H0.5C0.5 5.79565 0.81607 6.55871 1.37868 7.12132C1.94129 7.68393 2.70435 8 3.5 8H21.5C22.2605 8.00929 22.9956 7.72644 23.5538 7.20977C24.112 6.6931 24.4506 5.98198 24.5 5.223C24.5294 4.54804 24.4219 3.87411 24.1839 3.24183C23.9459 2.60954 23.5823 2.03198 23.1152 1.54395C22.648 1.05593 22.0868 0.66754 21.4655 0.402193C20.8442 0.136846 20.1756 3.37588e-05 19.5 0V0Z" fill="#8C8C8C"/>
<path d="M22.5 10H2.5C2.23478 10 1.98043 10.1054 1.79289 10.2929C1.60536 10.4804 1.5 10.7348 1.5 11V19C1.50159 20.3256 2.02888 21.5964 2.96622 22.5338C3.90356 23.4711 5.17441 23.9984 6.5 24H18.5C19.8256 23.9984 21.0964 23.4711 22.0338 22.5338C22.9711 21.5964 23.4984 20.3256 23.5 19V11C23.5 10.7348 23.3946 10.4804 23.2071 10.2929C23.0196 10.1054 22.7652 10 22.5 10ZM15.5 15H9.5C9.23478 15 8.98043 14.8946 8.79289 14.7071C8.60536 14.5196 8.5 14.2652 8.5 14C8.5 13.7348 8.60536 13.4804 8.79289 13.2929C8.98043 13.1054 9.23478 13 9.5 13H15.5C15.7652 13 16.0196 13.1054 16.2071 13.2929C16.3946 13.4804 16.5 13.7348 16.5 14C16.5 14.2652 16.3946 14.5196 16.2071 14.7071C16.0196 14.8946 15.7652 15 15.5 15Z" fill="#8C8C8C"/>
</g>
<defs>
<clipPath id="clip0_2483_254">
<rect width="24" height="24" fill="white" transform="translate(0.5)"/>
</clipPath>
</defs>
</svg>
